<svg width="18" height="18" viewBox="0 0 18 18" fill="none" xmlns="http://www.w3.org/2000/svg">
<path d="M17.3334 9C17.3334 13.6024 13.6024 17.3333 9.00002 17.3333C4.39765 17.3333 0.666687 13.6024 0.666687 9C0.666687 4.39763 4.39765 0.666672 9.00002 0.666672C13.6024 0.666672 17.3334 4.39763 17.3334 9Z" fill="black"/>
<path fill-rule="evenodd" clip-rule="evenodd" d="M9.00002 5.04167C9.3452 5.04167 9.62502 5.32149 9.62502 5.66667V8.74112L11.5253 10.6414C11.7694 10.8855 11.7694 11.2812 11.5253 11.5253C11.2812 11.7694 10.8855 11.7694 10.6414 11.5253L8.55808 9.44195C8.44087 9.32474 8.37502 9.16576 8.37502 9V5.66667C8.37502 5.32149 8.65484 5.04167 9.00002 5.04167Z" fill="white"/>
</svg>
